<?xml version="1.0" encoding="UTF-8"?>
<svg width="24px" height="24px" viewBox="0 0 24 24" version="1.1" xmlns="http://www.w3.org/2000/svg" xmlns:xlink="http://www.w3.org/1999/xlink">
    <title>F3B16D02-E272-41B1-B11E-2F3DDFA25D4A</title>
    <g id="1---Icons/Navigation/Arrow-Left/24px/1-Outlined" stroke="none" stroke-width="1" fill="none" fill-rule="evenodd">
        <g id="🎨-colour" transform="translate(4, 6)" fill="#000000">
            <path d="M0.199999,5.06000001 C0.0740968,5.16387001 0,5.32688001 0,5.5 C0,5.67312001 0.0740968,5.83613001 0.199999,5.94000001 L6.19997,10.89 C6.42089,11.0722 6.73429,11.023 6.89997,10.78 C7.06566,10.537 7.02088,10.1922 6.79997,10.01 L1.93939,6 L15.4286,6 C15.7442,6 16,5.77614001 16,5.5 C16,5.22386001 15.7442,5 15.4286,5 L1.93939,5 L6.79997,0.990026008 C7.02088,0.807774008 7.06566,0.463035008 6.89997,0.220031008 C6.73429,-0.0229730924 6.42089,-0.0722210924 6.19997,0.110032008 L0.199999,5.06000001 Z"></path>
        </g>
    </g>
</svg>