<?xml version="1.0" encoding="UTF-8"?>
<svg width="24px" height="24px" viewBox="0 0 24 24" version="1.1" xmlns="http://www.w3.org/2000/svg" xmlns:xlink="http://www.w3.org/1999/xlink">
    <title>62A26153-FFE1-44DA-B1BA-2C181DC8AB15</title>
    <g id="1---Icons/Content/Edit/24px/2-Filled" stroke="none" stroke-width="1" fill="none" fill-rule="evenodd">
        <g id="🎨-colour" transform="translate(5, 5)" fill="#000000">
            <path d="M8.8389,2.4141675 L12.3744,5.9497075 L3.8285,14.4957075 C3.67216667,14.6519575 3.46951389,14.7511936 3.25283333,14.779932 L3.1214,14.7886075 L1,14.7886075 C0.48715,14.7886075 0.0644908163,14.4025805 0.00672751458,13.9052314 L0,13.7886075 L0,11.6673075 C0,11.4462242 0.0731944444,11.2327797 0.206099537,11.059208 L0.2929,10.9601075 L8.8389,2.4141675 Z M10.9602,0.2928975 C11.3206615,-0.0675917308 11.8879207,-0.0953216716 12.2801973,0.209707678 L12.3744,0.2928975 L14.4957,2.4142175 C14.8561615,2.7746975 14.8838893,3.34193253 14.5788834,3.734221 L14.4957,3.8284275 L13.0815,5.2425975 L9.546,1.7070675 L10.9602,0.2928975 Z"></path>
        </g>
    </g>
</svg>