<?xml version="1.0" encoding="UTF-8"?>
<svg width="24px" height="24px" viewBox="0 0 24 24" version="1.1" xmlns="http://www.w3.org/2000/svg" xmlns:xlink="http://www.w3.org/1999/xlink">
    <title>87BAEE19-DD4B-4CB8-A79B-5DA3C2E67B06</title>
    <g id="1---Icons/Data/Trade/24px/trade-24px-stroke" stroke="none" stroke-width="1" fill="none" fill-rule="evenodd">
        <g id="🎨-colour" transform="translate(3, 3)" fill="#000000">
            <path d="M8,2 C8.27614,2 8.5,2.22386 8.5,2.5 C8.5,2.77614 8.27614,3 8,3 L2.5,3 C1.67157,3 1,3.67157 1,4.5 L1,13.292 L3.5,10.7928932 L5.5,12.793 L8.5,9.79289322 L10.5,11.793 L13.1464466,9.14644661 C13.3417088,8.95118446 13.6582912,8.95118446 13.8535534,9.14644661 C14.0488155,9.34170876 14.0488155,9.65829124 13.8535534,9.85355339 L10.5,13.2071068 L8.5,11.207 L5.5,14.2071068 L3.5,12.207 L1,14.706 L1,15.5 C1,16.3284 1.67157,17 2.5,17 L13.5,17 C14.3284,17 15,16.3284 15,15.5 L15,10 C15,9.72386 15.2239,9.5 15.5,9.5 C15.7761,9.5 16,9.72386 16,10 L16,15.5 C16,16.8807 14.8807,18 13.5,18 L2.5,18 C1.11929,18 0,16.8807 0,15.5 L0,4.5 C0,3.11929 1.11929,2 2.5,2 L8,2 Z M13.5,0 C15.433,0 17,1.567 17,3.5 C17,4.36106 16.6891,5.14949 16.1733,5.75915 L18.3535,7.93934 C18.5488,8.1346 18.5488,8.45118 18.3535,8.64645 C18.1583,8.84171 17.8417,8.84171 17.6464,8.64645 L15.4241,6.42413 C14.872,6.78814 14.2108,7 13.5,7 C11.567,7 10,5.433 10,3.5 C10,1.567 11.567,0 13.5,0 Z M13.5,1 C12.1193,1 11,2.11929 11,3.5 C11,4.88071 12.1193,6 13.5,6 C14.8807,6 16,4.88071 16,3.5 C16,2.11929 14.8807,1 13.5,1 Z" id="Combined-Shape"></path>
        </g>
    </g>
</svg>